<mxfile host="app.diagrams.net" agent="Mozilla/5.0 (Macintosh; Intel Mac OS X 10_15_7) AppleWebKit/537.36 (KHTML, like Gecko) Chrome/131.0.0.0 Safari/537.36" version="25.0.1">
  <diagram name="Page-1" id="HfIymK8GrgAYLwVtbaOh">
    <mxGraphModel dx="1710" dy="998" grid="1" gridSize="10" guides="1" tooltips="1" connect="1" arrows="1" fold="1" page="1" pageScale="1" pageWidth="850" pageHeight="1100" math="0" shadow="0">
      <root>
        <mxCell id="0" />
        <mxCell id="1" parent="0" />
        <mxCell id="kMMZ-hEUHEecdAPWSk_s-1" value="&lt;font&gt;&lt;u&gt;id&lt;/u&gt;&lt;/font&gt;" style="rounded=0;whiteSpace=wrap;html=1;hachureGap=4;fontFamily=Courier New;glass=0;shadow=0;strokeWidth=2;" parent="1" vertex="1">
          <mxGeometry x="42" y="60" width="38" height="44" as="geometry" />
        </mxCell>
        <mxCell id="kMMZ-hEUHEecdAPWSk_s-3" value="&lt;font&gt;customer&lt;/font&gt;" style="text;html=1;align=center;verticalAlign=middle;whiteSpace=wrap;rounded=0;fontSize=16;fontFamily=Courier New;" parent="1" vertex="1">
          <mxGeometry x="42" y="30" width="80" height="30" as="geometry" />
        </mxCell>
        <mxCell id="kMMZ-hEUHEecdAPWSk_s-4" value="&lt;font&gt;name&lt;/font&gt;" style="rounded=0;whiteSpace=wrap;html=1;hachureGap=4;fontFamily=Courier New;glass=0;shadow=0;strokeWidth=2;" parent="1" vertex="1">
          <mxGeometry x="80" y="60" width="56" height="44" as="geometry" />
        </mxCell>
        <mxCell id="kMMZ-hEUHEecdAPWSk_s-5" value="&lt;font&gt;email&lt;/font&gt;" style="rounded=0;whiteSpace=wrap;html=1;hachureGap=4;fontFamily=Courier New;glass=0;shadow=0;strokeWidth=2;" parent="1" vertex="1">
          <mxGeometry x="136" y="60" width="55" height="44" as="geometry" />
        </mxCell>
        <mxCell id="kMMZ-hEUHEecdAPWSk_s-14" value="&lt;font&gt;&lt;u&gt;id&lt;/u&gt;&lt;/font&gt;" style="rounded=0;whiteSpace=wrap;html=1;hachureGap=4;fontFamily=Courier New;glass=0;shadow=0;strokeWidth=2;" parent="1" vertex="1">
          <mxGeometry x="41" y="190" width="38" height="44" as="geometry" />
        </mxCell>
        <mxCell id="kMMZ-hEUHEecdAPWSk_s-15" value="&lt;font&gt;auth_google&lt;/font&gt;" style="text;html=1;align=center;verticalAlign=middle;whiteSpace=wrap;rounded=0;fontSize=16;fontFamily=Courier New;" parent="1" vertex="1">
          <mxGeometry x="39" y="160" width="110" height="30" as="geometry" />
        </mxCell>
        <mxCell id="EB0txxJlASANrSy_Bd_S-33" style="edgeStyle=orthogonalEdgeStyle;rounded=0;orthogonalLoop=1;jettySize=auto;html=1;entryX=0;entryY=0.5;entryDx=0;entryDy=0;fontFamily=Courier New;" edge="1" parent="1" source="kMMZ-hEUHEecdAPWSk_s-16" target="kMMZ-hEUHEecdAPWSk_s-1">
          <mxGeometry relative="1" as="geometry">
            <Array as="points">
              <mxPoint x="122" y="260" />
              <mxPoint x="10" y="260" />
              <mxPoint x="10" y="82" />
            </Array>
          </mxGeometry>
        </mxCell>
        <mxCell id="kMMZ-hEUHEecdAPWSk_s-16" value="&lt;font&gt;customer_id&lt;/font&gt;" style="rounded=0;whiteSpace=wrap;html=1;hachureGap=4;fontFamily=Courier New;glass=0;shadow=0;strokeWidth=2;" parent="1" vertex="1">
          <mxGeometry x="79" y="190" width="86" height="44" as="geometry" />
        </mxCell>
        <mxCell id="kMMZ-hEUHEecdAPWSk_s-17" value="&lt;font&gt;sub&lt;/font&gt;" style="rounded=0;whiteSpace=wrap;html=1;hachureGap=4;fontFamily=Courier New;glass=0;shadow=0;strokeWidth=2;" parent="1" vertex="1">
          <mxGeometry x="165" y="190" width="35" height="44" as="geometry" />
        </mxCell>
        <mxCell id="kMMZ-hEUHEecdAPWSk_s-20" value="&lt;font&gt;&lt;u&gt;id&lt;/u&gt;&lt;/font&gt;" style="rounded=0;whiteSpace=wrap;html=1;hachureGap=4;fontFamily=Courier New;glass=0;shadow=0;strokeWidth=2;" parent="1" vertex="1">
          <mxGeometry x="42" y="434" width="38" height="44" as="geometry" />
        </mxCell>
        <mxCell id="kMMZ-hEUHEecdAPWSk_s-21" value="&lt;font&gt;calendar_accounts&lt;/font&gt;" style="text;html=1;align=center;verticalAlign=middle;whiteSpace=wrap;rounded=0;fontSize=16;fontFamily=Courier New;" parent="1" vertex="1">
          <mxGeometry x="41" y="404" width="155" height="30" as="geometry" />
        </mxCell>
        <mxCell id="EB0txxJlASANrSy_Bd_S-35" style="edgeStyle=orthogonalEdgeStyle;rounded=0;orthogonalLoop=1;jettySize=auto;html=1;entryX=0;entryY=0.5;entryDx=0;entryDy=0;fontFamily=Courier New;" edge="1" parent="1" source="kMMZ-hEUHEecdAPWSk_s-22" target="kMMZ-hEUHEecdAPWSk_s-1">
          <mxGeometry relative="1" as="geometry">
            <Array as="points">
              <mxPoint x="130" y="500" />
              <mxPoint x="10" y="500" />
              <mxPoint x="10" y="82" />
            </Array>
          </mxGeometry>
        </mxCell>
        <mxCell id="kMMZ-hEUHEecdAPWSk_s-22" value="&lt;span style=&quot;&quot;&gt;customer_id&lt;/span&gt;" style="rounded=0;whiteSpace=wrap;html=1;hachureGap=4;fontFamily=Courier New;glass=0;shadow=0;strokeWidth=2;" parent="1" vertex="1">
          <mxGeometry x="80" y="434" width="100" height="44" as="geometry" />
        </mxCell>
        <mxCell id="kMMZ-hEUHEecdAPWSk_s-23" value="&lt;font&gt;provider&lt;/font&gt;" style="rounded=0;whiteSpace=wrap;html=1;hachureGap=4;fontFamily=Courier New;glass=0;shadow=0;strokeWidth=2;" parent="1" vertex="1">
          <mxGeometry x="180" y="434" width="70" height="44" as="geometry" />
        </mxCell>
        <mxCell id="kMMZ-hEUHEecdAPWSk_s-24" value="&lt;font&gt;created_at&lt;/font&gt;" style="rounded=0;whiteSpace=wrap;html=1;hachureGap=4;fontFamily=Courier New;glass=0;shadow=0;strokeWidth=2;" parent="1" vertex="1">
          <mxGeometry x="250" y="434" width="80" height="44" as="geometry" />
        </mxCell>
        <mxCell id="kMMZ-hEUHEecdAPWSk_s-25" value="&lt;font&gt;updated_at&lt;/font&gt;" style="rounded=0;whiteSpace=wrap;html=1;hachureGap=4;fontFamily=Courier New;glass=0;shadow=0;strokeWidth=2;" parent="1" vertex="1">
          <mxGeometry x="330" y="434" width="90" height="44" as="geometry" />
        </mxCell>
        <mxCell id="kMMZ-hEUHEecdAPWSk_s-32" value="&lt;span style=&quot;&quot;&gt;&lt;font&gt;&lt;u&gt;id&lt;/u&gt;&lt;/font&gt;&lt;/span&gt;" style="rounded=0;whiteSpace=wrap;html=1;hachureGap=4;fontFamily=Courier New;glass=0;shadow=0;strokeWidth=2;" parent="1" vertex="1">
          <mxGeometry x="41" y="314" width="39" height="44" as="geometry" />
        </mxCell>
        <mxCell id="kMMZ-hEUHEecdAPWSk_s-33" value="&lt;font&gt;magic_link&lt;/font&gt;" style="text;html=1;align=center;verticalAlign=middle;whiteSpace=wrap;rounded=0;fontSize=16;fontFamily=Courier New;" parent="1" vertex="1">
          <mxGeometry x="41" y="284" width="112" height="30" as="geometry" />
        </mxCell>
        <mxCell id="EB0txxJlASANrSy_Bd_S-34" style="edgeStyle=orthogonalEdgeStyle;rounded=0;orthogonalLoop=1;jettySize=auto;html=1;entryX=0;entryY=0.5;entryDx=0;entryDy=0;fontFamily=Courier New;" edge="1" parent="1" source="kMMZ-hEUHEecdAPWSk_s-34" target="kMMZ-hEUHEecdAPWSk_s-1">
          <mxGeometry relative="1" as="geometry">
            <Array as="points">
              <mxPoint x="129" y="380" />
              <mxPoint x="10" y="380" />
              <mxPoint x="10" y="82" />
            </Array>
          </mxGeometry>
        </mxCell>
        <mxCell id="kMMZ-hEUHEecdAPWSk_s-34" value="&lt;span style=&quot;&quot;&gt;customer_id&lt;/span&gt;" style="rounded=0;whiteSpace=wrap;html=1;hachureGap=4;fontFamily=Courier New;glass=0;shadow=0;strokeWidth=2;" parent="1" vertex="1">
          <mxGeometry x="80" y="314" width="97" height="44" as="geometry" />
        </mxCell>
        <mxCell id="kMMZ-hEUHEecdAPWSk_s-35" value="&lt;font&gt;token_hash&lt;/font&gt;" style="rounded=0;whiteSpace=wrap;html=1;hachureGap=4;fontFamily=Courier New;glass=0;shadow=0;strokeWidth=2;" parent="1" vertex="1">
          <mxGeometry x="177" y="314" width="86" height="44" as="geometry" />
        </mxCell>
        <mxCell id="kMMZ-hEUHEecdAPWSk_s-36" value="&lt;font&gt;expires_at&lt;/font&gt;" style="rounded=0;whiteSpace=wrap;html=1;hachureGap=4;fontFamily=Courier New;glass=0;shadow=0;strokeWidth=2;" parent="1" vertex="1">
          <mxGeometry x="263" y="314" width="83" height="44" as="geometry" />
        </mxCell>
        <mxCell id="kMMZ-hEUHEecdAPWSk_s-37" value="&lt;font&gt;used_at&lt;/font&gt;" style="rounded=0;whiteSpace=wrap;html=1;hachureGap=4;fontFamily=Courier New;glass=0;shadow=0;strokeWidth=2;" parent="1" vertex="1">
          <mxGeometry x="346" y="314" width="60" height="44" as="geometry" />
        </mxCell>
        <mxCell id="kMMZ-hEUHEecdAPWSk_s-45" value="&lt;font&gt;&lt;u&gt;uid&lt;/u&gt;&lt;/font&gt;" style="rounded=0;whiteSpace=wrap;html=1;hachureGap=4;fontFamily=Courier New;glass=0;shadow=0;strokeWidth=2;" parent="1" vertex="1">
          <mxGeometry x="37" y="543" width="46" height="44" as="geometry" />
        </mxCell>
        <mxCell id="kMMZ-hEUHEecdAPWSk_s-46" value="&lt;font&gt;vcalendar&lt;/font&gt;" style="text;html=1;align=center;verticalAlign=middle;whiteSpace=wrap;rounded=0;fontSize=16;fontFamily=Courier New;" parent="1" vertex="1">
          <mxGeometry x="37" y="513" width="90" height="30" as="geometry" />
        </mxCell>
        <mxCell id="EB0txxJlASANrSy_Bd_S-36" style="edgeStyle=orthogonalEdgeStyle;rounded=0;orthogonalLoop=1;jettySize=auto;html=1;entryX=0;entryY=0.5;entryDx=0;entryDy=0;fontFamily=Courier New;" edge="1" parent="1" source="kMMZ-hEUHEecdAPWSk_s-47" target="kMMZ-hEUHEecdAPWSk_s-20">
          <mxGeometry relative="1" as="geometry">
            <Array as="points">
              <mxPoint x="123" y="610" />
              <mxPoint x="22" y="610" />
              <mxPoint x="22" y="456" />
            </Array>
          </mxGeometry>
        </mxCell>
        <mxCell id="kMMZ-hEUHEecdAPWSk_s-47" value="&lt;font&gt;account_id&lt;/font&gt;" style="rounded=0;whiteSpace=wrap;html=1;hachureGap=4;fontFamily=Courier New;glass=0;shadow=0;strokeWidth=2;" parent="1" vertex="1">
          <mxGeometry x="83" y="543" width="80" height="44" as="geometry" />
        </mxCell>
        <mxCell id="kMMZ-hEUHEecdAPWSk_s-48" value="&lt;font&gt;prodid&lt;/font&gt;" style="rounded=0;whiteSpace=wrap;html=1;hachureGap=4;fontFamily=Courier New;glass=0;shadow=0;strokeWidth=2;" parent="1" vertex="1">
          <mxGeometry x="163" y="543" width="60" height="44" as="geometry" />
        </mxCell>
        <mxCell id="kMMZ-hEUHEecdAPWSk_s-49" value="&lt;font&gt;version&lt;/font&gt;" style="rounded=0;whiteSpace=wrap;html=1;hachureGap=4;fontFamily=Courier New;glass=0;shadow=0;strokeWidth=2;" parent="1" vertex="1">
          <mxGeometry x="223" y="543" width="60" height="44" as="geometry" />
        </mxCell>
        <mxCell id="kMMZ-hEUHEecdAPWSk_s-50" value="&lt;font&gt;display_name&lt;/font&gt;" style="rounded=0;whiteSpace=wrap;html=1;hachureGap=4;fontFamily=Courier New;glass=0;shadow=0;strokeWidth=2;" parent="1" vertex="1">
          <mxGeometry x="283" y="543" width="107" height="44" as="geometry" />
        </mxCell>
        <mxCell id="kMMZ-hEUHEecdAPWSk_s-51" value="&lt;font&gt;color&lt;/font&gt;" style="rounded=0;whiteSpace=wrap;html=1;hachureGap=4;fontFamily=Courier New;glass=0;shadow=0;strokeWidth=2;" parent="1" vertex="1">
          <mxGeometry x="487" y="543" width="50" height="44" as="geometry" />
        </mxCell>
        <mxCell id="kMMZ-hEUHEecdAPWSk_s-52" value="&lt;font&gt;description&lt;/font&gt;" style="rounded=0;whiteSpace=wrap;html=1;hachureGap=4;fontFamily=Courier New;glass=0;shadow=0;strokeWidth=2;" parent="1" vertex="1">
          <mxGeometry x="390" y="543" width="97" height="44" as="geometry" />
        </mxCell>
        <mxCell id="kMMZ-hEUHEecdAPWSk_s-55" value="&lt;font&gt;timezone&lt;/font&gt;" style="rounded=0;whiteSpace=wrap;html=1;hachureGap=4;fontFamily=Courier New;glass=0;shadow=0;strokeWidth=2;" parent="1" vertex="1">
          <mxGeometry x="537" y="543" width="80" height="44" as="geometry" />
        </mxCell>
        <mxCell id="kMMZ-hEUHEecdAPWSk_s-56" value="&lt;font&gt;created_at&lt;/font&gt;" style="rounded=0;whiteSpace=wrap;html=1;hachureGap=4;fontFamily=Courier New;glass=0;shadow=0;strokeWidth=2;" parent="1" vertex="1">
          <mxGeometry x="617.5" y="543" width="80" height="44" as="geometry" />
        </mxCell>
        <mxCell id="kMMZ-hEUHEecdAPWSk_s-57" value="&lt;font&gt;updated_at&lt;/font&gt;" style="rounded=0;whiteSpace=wrap;html=1;hachureGap=4;fontFamily=Courier New;glass=0;shadow=0;strokeWidth=2;" parent="1" vertex="1">
          <mxGeometry x="697.5" y="543" width="79.5" height="44" as="geometry" />
        </mxCell>
        <mxCell id="kMMZ-hEUHEecdAPWSk_s-58" value="&lt;font&gt;&lt;u style=&quot;&quot;&gt;uid&lt;/u&gt;&lt;/font&gt;" style="rounded=0;whiteSpace=wrap;html=1;hachureGap=4;fontFamily=Courier New;glass=0;shadow=0;strokeWidth=2;" parent="1" vertex="1">
          <mxGeometry x="37" y="670" width="43" height="44" as="geometry" />
        </mxCell>
        <mxCell id="kMMZ-hEUHEecdAPWSk_s-59" value="&lt;font&gt;vevent&lt;/font&gt;" style="text;html=1;align=center;verticalAlign=middle;whiteSpace=wrap;rounded=0;fontSize=16;fontFamily=Courier New;" parent="1" vertex="1">
          <mxGeometry x="37" y="630" width="60" height="40" as="geometry" />
        </mxCell>
        <mxCell id="kMMZ-hEUHEecdAPWSk_s-78" value="&lt;span style=&quot;&quot;&gt;&lt;font&gt;&lt;u&gt;id&lt;/u&gt;&lt;/font&gt;&lt;/span&gt;" style="rounded=0;whiteSpace=wrap;html=1;hachureGap=4;fontFamily=Courier New;glass=0;shadow=0;strokeWidth=2;" parent="1" vertex="1">
          <mxGeometry x="37" y="830" width="33" height="44" as="geometry" />
        </mxCell>
        <mxCell id="kMMZ-hEUHEecdAPWSk_s-79" value="&lt;font&gt;vevent_exception&lt;/font&gt;" style="text;html=1;align=center;verticalAlign=middle;whiteSpace=wrap;rounded=0;fontSize=16;fontFamily=Courier New;" parent="1" vertex="1">
          <mxGeometry x="37" y="800" width="150" height="30" as="geometry" />
        </mxCell>
        <mxCell id="EB0txxJlASANrSy_Bd_S-38" style="edgeStyle=orthogonalEdgeStyle;rounded=0;orthogonalLoop=1;jettySize=auto;html=1;entryX=0;entryY=0.5;entryDx=0;entryDy=0;fontFamily=Courier New;" edge="1" parent="1" source="kMMZ-hEUHEecdAPWSk_s-80" target="kMMZ-hEUHEecdAPWSk_s-58">
          <mxGeometry relative="1" as="geometry">
            <Array as="points">
              <mxPoint x="105" y="900" />
              <mxPoint x="10" y="900" />
              <mxPoint x="10" y="692" />
            </Array>
          </mxGeometry>
        </mxCell>
        <mxCell id="kMMZ-hEUHEecdAPWSk_s-80" value="&lt;span style=&quot;&quot;&gt;&lt;font&gt;event_uid&lt;/font&gt;&lt;/span&gt;" style="rounded=0;whiteSpace=wrap;html=1;hachureGap=4;fontFamily=Courier New;glass=0;shadow=0;strokeWidth=2;" parent="1" vertex="1">
          <mxGeometry x="70" y="830" width="80" height="44" as="geometry" />
        </mxCell>
        <mxCell id="kMMZ-hEUHEecdAPWSk_s-81" value="&lt;font&gt;recurrence_id&lt;/font&gt;" style="rounded=0;whiteSpace=wrap;html=1;hachureGap=4;fontFamily=Courier New;glass=0;shadow=0;strokeWidth=2;" parent="1" vertex="1">
          <mxGeometry x="150" y="830" width="110" height="44" as="geometry" />
        </mxCell>
        <mxCell id="kMMZ-hEUHEecdAPWSk_s-82" value="&lt;font&gt;summary&lt;/font&gt;" style="rounded=0;whiteSpace=wrap;html=1;hachureGap=4;fontFamily=Courier New;glass=0;shadow=0;strokeWidth=2;" parent="1" vertex="1">
          <mxGeometry x="260" y="830" width="70" height="44" as="geometry" />
        </mxCell>
        <mxCell id="kMMZ-hEUHEecdAPWSk_s-83" value="&lt;font&gt;description&lt;/font&gt;" style="rounded=0;whiteSpace=wrap;html=1;hachureGap=4;fontFamily=Courier New;glass=0;shadow=0;strokeWidth=2;" parent="1" vertex="1">
          <mxGeometry x="330" y="830" width="90" height="44" as="geometry" />
        </mxCell>
        <mxCell id="kMMZ-hEUHEecdAPWSk_s-84" value="&lt;font&gt;dtstart&lt;/font&gt;" style="rounded=0;whiteSpace=wrap;html=1;hachureGap=4;fontFamily=Courier New;glass=0;shadow=0;strokeWidth=2;" parent="1" vertex="1">
          <mxGeometry x="491.5" y="830" width="61.5" height="44" as="geometry" />
        </mxCell>
        <mxCell id="kMMZ-hEUHEecdAPWSk_s-85" value="&lt;font&gt;location&lt;/font&gt;" style="rounded=0;whiteSpace=wrap;html=1;hachureGap=4;fontFamily=Courier New;glass=0;shadow=0;strokeWidth=2;" parent="1" vertex="1">
          <mxGeometry x="420" y="830" width="71.5" height="44" as="geometry" />
        </mxCell>
        <mxCell id="kMMZ-hEUHEecdAPWSk_s-86" value="&lt;font&gt;dtend&lt;/font&gt;" style="rounded=0;whiteSpace=wrap;html=1;hachureGap=4;fontFamily=Courier New;glass=0;shadow=0;strokeWidth=2;" parent="1" vertex="1">
          <mxGeometry x="553" y="830" width="50" height="44" as="geometry" />
        </mxCell>
        <mxCell id="kMMZ-hEUHEecdAPWSk_s-87" value="&lt;font&gt;status&lt;/font&gt;" style="rounded=0;whiteSpace=wrap;html=1;hachureGap=4;fontFamily=Courier New;glass=0;shadow=0;strokeWidth=2;" parent="1" vertex="1">
          <mxGeometry x="603" y="830" width="61.5" height="44" as="geometry" />
        </mxCell>
        <mxCell id="kMMZ-hEUHEecdAPWSk_s-88" value="&lt;font&gt;updated_at&lt;/font&gt;" style="rounded=0;whiteSpace=wrap;html=1;hachureGap=4;fontFamily=Courier New;glass=0;shadow=0;strokeWidth=2;" parent="1" vertex="1">
          <mxGeometry x="754.5" y="830" width="92" height="44" as="geometry" />
        </mxCell>
        <mxCell id="kMMZ-hEUHEecdAPWSk_s-91" value="&lt;font&gt;&lt;u&gt;id&lt;/u&gt;&lt;/font&gt;" style="rounded=0;whiteSpace=wrap;html=1;hachureGap=4;fontFamily=Courier New;glass=0;shadow=0;strokeWidth=2;" parent="1" vertex="1">
          <mxGeometry x="37" y="950" width="27" height="44" as="geometry" />
        </mxCell>
        <mxCell id="kMMZ-hEUHEecdAPWSk_s-92" value="&lt;font&gt;valarm&lt;/font&gt;" style="text;html=1;align=center;verticalAlign=middle;whiteSpace=wrap;rounded=0;fontSize=16;fontFamily=Courier New;" parent="1" vertex="1">
          <mxGeometry x="38" y="920" width="60" height="30" as="geometry" />
        </mxCell>
        <mxCell id="EB0txxJlASANrSy_Bd_S-41" style="edgeStyle=orthogonalEdgeStyle;rounded=0;orthogonalLoop=1;jettySize=auto;html=1;entryX=0;entryY=0.5;entryDx=0;entryDy=0;fontFamily=Courier New;" edge="1" parent="1" source="kMMZ-hEUHEecdAPWSk_s-93" target="kMMZ-hEUHEecdAPWSk_s-58">
          <mxGeometry relative="1" as="geometry">
            <Array as="points">
              <mxPoint x="104" y="1020" />
              <mxPoint x="10" y="1020" />
              <mxPoint x="10" y="692" />
            </Array>
          </mxGeometry>
        </mxCell>
        <mxCell id="kMMZ-hEUHEecdAPWSk_s-93" value="&lt;span style=&quot;&quot;&gt;&lt;font&gt;event_uid&lt;/font&gt;&lt;/span&gt;" style="rounded=0;whiteSpace=wrap;html=1;hachureGap=4;fontFamily=Courier New;glass=0;shadow=0;strokeWidth=2;" parent="1" vertex="1">
          <mxGeometry x="64" y="950" width="80" height="44" as="geometry" />
        </mxCell>
        <mxCell id="kMMZ-hEUHEecdAPWSk_s-94" value="&lt;font&gt;action&lt;/font&gt;" style="rounded=0;whiteSpace=wrap;html=1;hachureGap=4;fontFamily=Courier New;glass=0;shadow=0;strokeWidth=2;" parent="1" vertex="1">
          <mxGeometry x="144" y="950" width="56" height="44" as="geometry" />
        </mxCell>
        <mxCell id="kMMZ-hEUHEecdAPWSk_s-95" value="&lt;font&gt;trigger&lt;/font&gt;" style="rounded=0;whiteSpace=wrap;html=1;hachureGap=4;fontFamily=Courier New;glass=0;shadow=0;strokeWidth=2;" parent="1" vertex="1">
          <mxGeometry x="200" y="950" width="60" height="44" as="geometry" />
        </mxCell>
        <mxCell id="kMMZ-hEUHEecdAPWSk_s-96" value="&lt;font&gt;description&lt;/font&gt;" style="rounded=0;whiteSpace=wrap;html=1;hachureGap=4;fontFamily=Courier New;glass=0;shadow=0;strokeWidth=2;" parent="1" vertex="1">
          <mxGeometry x="260" y="950" width="90" height="44" as="geometry" />
        </mxCell>
        <mxCell id="kMMZ-hEUHEecdAPWSk_s-97" value="&lt;font&gt;duration&lt;/font&gt;" style="rounded=0;whiteSpace=wrap;html=1;hachureGap=4;fontFamily=Courier New;glass=0;shadow=0;strokeWidth=2;" parent="1" vertex="1">
          <mxGeometry x="420" y="950" width="70" height="44" as="geometry" />
        </mxCell>
        <mxCell id="kMMZ-hEUHEecdAPWSk_s-98" value="&lt;font&gt;summary&lt;/font&gt;" style="rounded=0;whiteSpace=wrap;html=1;hachureGap=4;fontFamily=Courier New;glass=0;shadow=0;strokeWidth=2;" parent="1" vertex="1">
          <mxGeometry x="350" y="950" width="70" height="44" as="geometry" />
        </mxCell>
        <mxCell id="kMMZ-hEUHEecdAPWSk_s-99" value="&lt;font&gt;repeat&lt;/font&gt;" style="rounded=0;whiteSpace=wrap;html=1;hachureGap=4;fontFamily=Courier New;glass=0;shadow=0;strokeWidth=2;" parent="1" vertex="1">
          <mxGeometry x="490" y="950" width="59.5" height="44" as="geometry" />
        </mxCell>
        <mxCell id="kMMZ-hEUHEecdAPWSk_s-100" value="&lt;font&gt;attendees&lt;/font&gt;" style="rounded=0;whiteSpace=wrap;html=1;hachureGap=4;fontFamily=Courier New;glass=0;shadow=0;strokeWidth=2;" parent="1" vertex="1">
          <mxGeometry x="549.5" y="950" width="81" height="44" as="geometry" />
        </mxCell>
        <mxCell id="kMMZ-hEUHEecdAPWSk_s-102" value="&lt;font&gt;created_at&lt;/font&gt;" style="rounded=0;whiteSpace=wrap;html=1;hachureGap=4;fontFamily=Courier New;glass=0;shadow=0;strokeWidth=2;" parent="1" vertex="1">
          <mxGeometry x="664.5" y="830" width="90" height="44" as="geometry" />
        </mxCell>
        <mxCell id="EB0txxJlASANrSy_Bd_S-7" value="&lt;font&gt;created_at&lt;/font&gt;" style="rounded=0;whiteSpace=wrap;html=1;hachureGap=4;fontFamily=Courier New;glass=0;shadow=0;strokeWidth=2;" vertex="1" parent="1">
          <mxGeometry x="200" y="190" width="80" height="44" as="geometry" />
        </mxCell>
        <mxCell id="EB0txxJlASANrSy_Bd_S-8" value="&lt;font&gt;updated_at&lt;/font&gt;" style="rounded=0;whiteSpace=wrap;html=1;hachureGap=4;fontFamily=Courier New;glass=0;shadow=0;strokeWidth=2;" vertex="1" parent="1">
          <mxGeometry x="280" y="190" width="90" height="44" as="geometry" />
        </mxCell>
        <mxCell id="EB0txxJlASANrSy_Bd_S-9" value="&lt;font&gt;created_at&lt;/font&gt;" style="rounded=0;whiteSpace=wrap;html=1;hachureGap=4;fontFamily=Courier New;glass=0;shadow=0;strokeWidth=2;" vertex="1" parent="1">
          <mxGeometry x="191" y="60" width="80" height="44" as="geometry" />
        </mxCell>
        <mxCell id="EB0txxJlASANrSy_Bd_S-10" value="&lt;font&gt;updated_at&lt;/font&gt;" style="rounded=0;whiteSpace=wrap;html=1;hachureGap=4;fontFamily=Courier New;glass=0;shadow=0;strokeWidth=2;" vertex="1" parent="1">
          <mxGeometry x="271" y="60" width="90" height="44" as="geometry" />
        </mxCell>
        <mxCell id="EB0txxJlASANrSy_Bd_S-37" style="edgeStyle=orthogonalEdgeStyle;rounded=0;orthogonalLoop=1;jettySize=auto;html=1;entryX=0;entryY=0.5;entryDx=0;entryDy=0;fontFamily=Courier New;" edge="1" parent="1" source="EB0txxJlASANrSy_Bd_S-12" target="kMMZ-hEUHEecdAPWSk_s-45">
          <mxGeometry relative="1" as="geometry" />
        </mxCell>
        <mxCell id="EB0txxJlASANrSy_Bd_S-12" value="&lt;font&gt;calendar_uid&lt;/font&gt;" style="rounded=0;whiteSpace=wrap;html=1;hachureGap=4;fontFamily=Courier New;glass=0;shadow=0;strokeWidth=2;" vertex="1" parent="1">
          <mxGeometry x="80" y="670" width="100" height="44" as="geometry" />
        </mxCell>
        <mxCell id="EB0txxJlASANrSy_Bd_S-13" value="&lt;font&gt;dtstamp&lt;/font&gt;" style="rounded=0;whiteSpace=wrap;html=1;hachureGap=4;fontFamily=Courier New;glass=0;shadow=0;strokeWidth=2;" vertex="1" parent="1">
          <mxGeometry x="180" y="670" width="70" height="44" as="geometry" />
        </mxCell>
        <mxCell id="EB0txxJlASANrSy_Bd_S-14" value="&lt;font&gt;dtstart&lt;/font&gt;" style="rounded=0;whiteSpace=wrap;html=1;hachureGap=4;fontFamily=Courier New;glass=0;shadow=0;strokeWidth=2;" vertex="1" parent="1">
          <mxGeometry x="250" y="670" width="70" height="44" as="geometry" />
        </mxCell>
        <mxCell id="EB0txxJlASANrSy_Bd_S-15" value="&lt;font&gt;dtend&lt;/font&gt;" style="rounded=0;whiteSpace=wrap;html=1;hachureGap=4;fontFamily=Courier New;glass=0;shadow=0;strokeWidth=2;" vertex="1" parent="1">
          <mxGeometry x="320" y="670" width="59" height="44" as="geometry" />
        </mxCell>
        <mxCell id="EB0txxJlASANrSy_Bd_S-16" value="&lt;font&gt;duration&lt;/font&gt;" style="rounded=0;whiteSpace=wrap;html=1;hachureGap=4;fontFamily=Courier New;glass=0;shadow=0;strokeWidth=2;" vertex="1" parent="1">
          <mxGeometry x="379" y="670" width="73" height="44" as="geometry" />
        </mxCell>
        <mxCell id="EB0txxJlASANrSy_Bd_S-17" value="&lt;font&gt;summary&lt;/font&gt;" style="rounded=0;whiteSpace=wrap;html=1;hachureGap=4;fontFamily=Courier New;glass=0;shadow=0;strokeWidth=2;" vertex="1" parent="1">
          <mxGeometry x="452" y="670" width="70" height="44" as="geometry" />
        </mxCell>
        <mxCell id="EB0txxJlASANrSy_Bd_S-18" value="&lt;font&gt;location&lt;/font&gt;" style="rounded=0;whiteSpace=wrap;html=1;hachureGap=4;fontFamily=Courier New;glass=0;shadow=0;strokeWidth=2;" vertex="1" parent="1">
          <mxGeometry x="522" y="670" width="80" height="44" as="geometry" />
        </mxCell>
        <mxCell id="EB0txxJlASANrSy_Bd_S-19" value="&lt;font&gt;status&lt;/font&gt;" style="rounded=0;whiteSpace=wrap;html=1;hachureGap=4;fontFamily=Courier New;glass=0;shadow=0;strokeWidth=2;" vertex="1" parent="1">
          <mxGeometry x="602" y="670" width="60" height="44" as="geometry" />
        </mxCell>
        <mxCell id="EB0txxJlASANrSy_Bd_S-20" value="&lt;font&gt;classification&lt;/font&gt;" style="rounded=0;whiteSpace=wrap;html=1;hachureGap=4;fontFamily=Courier New;glass=0;shadow=0;strokeWidth=2;" vertex="1" parent="1">
          <mxGeometry x="37" y="714" width="113" height="44" as="geometry" />
        </mxCell>
        <mxCell id="EB0txxJlASANrSy_Bd_S-21" value="&lt;font&gt;transp&lt;/font&gt;" style="rounded=0;whiteSpace=wrap;html=1;hachureGap=4;fontFamily=Courier New;glass=0;shadow=0;strokeWidth=2;" vertex="1" parent="1">
          <mxGeometry x="150" y="714" width="60" height="44" as="geometry" />
        </mxCell>
        <mxCell id="EB0txxJlASANrSy_Bd_S-22" value="&lt;font&gt;rrule&lt;/font&gt;" style="rounded=0;whiteSpace=wrap;html=1;hachureGap=4;fontFamily=Courier New;glass=0;shadow=0;strokeWidth=2;" vertex="1" parent="1">
          <mxGeometry x="210" y="714" width="53" height="44" as="geometry" />
        </mxCell>
        <mxCell id="EB0txxJlASANrSy_Bd_S-23" value="&lt;font&gt;rdate&lt;/font&gt;" style="rounded=0;whiteSpace=wrap;html=1;hachureGap=4;fontFamily=Courier New;glass=0;shadow=0;strokeWidth=2;" vertex="1" parent="1">
          <mxGeometry x="263" y="714" width="57" height="44" as="geometry" />
        </mxCell>
        <mxCell id="EB0txxJlASANrSy_Bd_S-24" value="&lt;font&gt;exdate&lt;/font&gt;" style="rounded=0;whiteSpace=wrap;html=1;hachureGap=4;fontFamily=Courier New;glass=0;shadow=0;strokeWidth=2;" vertex="1" parent="1">
          <mxGeometry x="320" y="714" width="70" height="44" as="geometry" />
        </mxCell>
        <mxCell id="EB0txxJlASANrSy_Bd_S-25" value="&lt;font&gt;sequence&lt;/font&gt;" style="rounded=0;whiteSpace=wrap;html=1;hachureGap=4;fontFamily=Courier New;glass=0;shadow=0;strokeWidth=2;" vertex="1" parent="1">
          <mxGeometry x="390" y="714" width="80" height="44" as="geometry" />
        </mxCell>
        <mxCell id="EB0txxJlASANrSy_Bd_S-29" value="&lt;font&gt;updated_at&lt;/font&gt;" style="rounded=0;whiteSpace=wrap;html=1;hachureGap=4;fontFamily=Courier New;glass=0;shadow=0;strokeWidth=2;" vertex="1" parent="1">
          <mxGeometry x="560" y="714" width="92" height="44" as="geometry" />
        </mxCell>
        <mxCell id="EB0txxJlASANrSy_Bd_S-30" value="&lt;font&gt;created_at&lt;/font&gt;" style="rounded=0;whiteSpace=wrap;html=1;hachureGap=4;fontFamily=Courier New;glass=0;shadow=0;strokeWidth=2;" vertex="1" parent="1">
          <mxGeometry x="470" y="714" width="90" height="44" as="geometry" />
        </mxCell>
        <mxCell id="EB0txxJlASANrSy_Bd_S-39" value="&lt;font&gt;updated_at&lt;/font&gt;" style="rounded=0;whiteSpace=wrap;html=1;hachureGap=4;fontFamily=Courier New;glass=0;shadow=0;strokeWidth=2;" vertex="1" parent="1">
          <mxGeometry x="720.5" y="950" width="92" height="44" as="geometry" />
        </mxCell>
        <mxCell id="EB0txxJlASANrSy_Bd_S-40" value="&lt;font&gt;created_at&lt;/font&gt;" style="rounded=0;whiteSpace=wrap;html=1;hachureGap=4;fontFamily=Courier New;glass=0;shadow=0;strokeWidth=2;" vertex="1" parent="1">
          <mxGeometry x="630.5" y="950" width="90" height="44" as="geometry" />
        </mxCell>
      </root>
    </mxGraphModel>
  </diagram>
</mxfile>
